<svg xmlns="http://www.w3.org/2000/svg" width="20.881" height="17.16" viewBox="0 0 20.881 17.16">
  <g id="add-picture-svgrepo-com" transform="translate(0 -2.477)">
    <path id="Path_206" data-name="Path 206" d="M5.091,5.891A1.237,1.237,0,1,0,6.328,7.128,1.236,1.236,0,0,0,5.091,5.891Z" transform="translate(-0.959 -0.849)" fill="#8e8e8e"/>
    <path id="Path_207" data-name="Path 207" d="M16.745,8a2.416,2.416,0,0,0,.953.186c.911,0,1.649-.445,1.649-.995S18.609,6.2,17.7,6.2a2.438,2.438,0,0,0-.922.171A.6.6,0,0,0,16.36,6.2h-.24a.589.589,0,0,0-.582.527c-.739.077-1.286.344-1.286.664,0,.381.769.688,1.723.688A4,4,0,0,0,16.745,8Z" transform="translate(-3.544 -0.925)" fill="#8e8e8e"/>
    <path id="Path_208" data-name="Path 208" d="M18.222,9.6V2.844a.367.367,0,0,0-.368-.367H.373A.37.37,0,0,0,0,2.844V17.974a.371.371,0,0,0,.373.369H11.984A5.393,5.393,0,1,0,18.222,9.6ZM8.255,8.351c-2-1.994-3.928,5.721-3.928,5.721H1.687V4.149H16.843V9.023a5.36,5.36,0,0,0-6.376,3.243A10.469,10.469,0,0,0,8.255,8.351ZM15.484,18.44a4.2,4.2,0,1,1,4.2-4.2A4.2,4.2,0,0,1,15.484,18.44Z" fill="#8e8e8e"/>
    <path id="Path_209" data-name="Path 209" d="M20.3,14.223H18.506v2.044H16.42v1.793h2.086v2.1H20.3v-2.1h2.063V16.267H20.3Z" transform="translate(-4.083 -2.921)" fill="#8e8e8e"/>
  </g>
</svg>
