<?xml version="1.0" encoding="iso-8859-1"?>
<!-- Generator: Adobe Illustrator 18.1.1, SVG Export Plug-In . SVG Version: 6.00 Build 0)  -->
<svg version="1.1" id="Capa_1" xmlns="http://www.w3.org/2000/svg" xmlns:xlink="http://www.w3.org/1999/xlink" x="0px" y="0px"
	 viewBox="0 0 19.788 19.788" style="enable-background:new 0 0 19.788 19.788;" xml:space="preserve">
<g>
	<path style="fill:#010002;" d="M14.503,8.252c0.902,0,1.757,0.203,2.522,0.563c0.554-0.928,0.952-1.827,1.084-2.63
		c0.274-1.675,0.032-3.026-0.72-4.014c-0.76-0.997-1.965-1.57-3.687-1.755c-0.137-0.014-0.283-0.022-0.431-0.022
		c-1.489,0-3.178,0.721-4.162,2.086c-0.985-1.365-2.672-2.086-4.16-2.086c-0.149,0-0.294,0.008-0.432,0.022
		C2.795,0.602,1.591,1.175,0.831,2.17C0.078,3.158-0.165,4.509,0.108,6.185c0.667,4.073,8.205,10.607,8.526,10.884
		c0.146,0.125,0.327,0.188,0.508,0.188c0.085,0,0.17-0.015,0.251-0.044c-0.525-0.886-0.829-1.92-0.829-3.023
		C8.564,10.916,11.229,8.252,14.503,8.252z M17.035,6.816c0,0-0.292-4.371-4.177-4.954C12.858,1.862,17.521,1.182,17.035,6.816z
		 M14.503,8.827c-2.916,0-5.283,2.365-5.283,5.283s2.367,5.284,5.283,5.284c2.92,0,5.285-2.366,5.285-5.284
		C19.788,11.191,17.423,8.827,14.503,8.827z M14.503,18.575c-2.465,0-4.464-2-4.464-4.465c0-2.467,1.999-4.465,4.464-4.465
		c2.467,0,4.466,1.998,4.466,4.465C18.969,16.575,16.97,18.575,14.503,18.575z M17.694,13.115v1.926h-2.213v2.26h-1.925v-2.26
		h-2.243v-1.926h2.243v-2.197h1.925v2.197C15.481,13.115,17.694,13.115,17.694,13.115z"/>
</g>
<g>
</g>
<g>
</g>
<g>
</g>
<g>
</g>
<g>
</g>
<g>
</g>
<g>
</g>
<g>
</g>
<g>
</g>
<g>
</g>
<g>
</g>
<g>
</g>
<g>
</g>
<g>
</g>
<g>
</g>
</svg>
