<?xml version="1.0" encoding="iso-8859-1"?>
<!-- Generator: Adobe Illustrator 18.0.0, SVG Export Plug-In . SVG Version: 6.00 Build 0)  -->
<!DOCTYPE svg PUBLIC "-//W3C//DTD SVG 1.1//EN" "http://www.w3.org/Graphics/SVG/1.1/DTD/svg11.dtd">
<svg version="1.1" id="Capa_1" xmlns="http://www.w3.org/2000/svg" xmlns:xlink="http://www.w3.org/1999/xlink" x="0px" y="0px"
	 viewBox="0 0 46.925 46.925" style="enable-background:new 0 0 46.925 46.925;" xml:space="preserve">
<path d="M45.12,36.558l-5.172-21.672c-0.161-0.675-0.765-1.151-1.459-1.151h-5.192V9.835C33.297,4.412,28.885,0,23.462,0
	c-5.423,0-9.834,4.412-9.834,9.835v3.899H8.436c-0.694,0-1.298,0.477-1.459,1.151L1.805,36.558c-0.602,2.521-0.025,5.133,1.58,7.167
	c1.605,2.034,4.013,3.2,6.603,3.2h26.948c2.591,0,4.998-1.166,6.604-3.2C45.146,41.69,45.722,39.078,45.12,36.558z M37.305,16.734
	l1.06,4.44h-5.068v-4.44H37.305z M16.628,21.175v-4.44h13.669v4.44H16.628z M16.628,9.835C16.628,6.066,19.693,3,23.462,3
	c3.769,0,6.835,3.066,6.835,6.835v3.899H16.628V9.835z M13.628,16.734v4.44H8.56l1.06-4.44H13.628z M41.186,41.865
	c-1.033,1.309-2.582,2.06-4.249,2.06H9.988c-1.667,0-3.216-0.751-4.249-2.06s-1.403-2.989-1.017-4.61l3.122-13.08H39.08l3.122,13.08
	C42.589,38.876,42.219,40.557,41.186,41.865z"/>
<g>
</g>
<g>
</g>
<g>
</g>
<g>
</g>
<g>
</g>
<g>
</g>
<g>
</g>
<g>
</g>
<g>
</g>
<g>
</g>
<g>
</g>
<g>
</g>
<g>
</g>
<g>
</g>
<g>
</g>
</svg>
