<?xml version="1.0" encoding="iso-8859-1"?>
<!-- Generator: Adobe Illustrator 18.0.0, SVG Export Plug-In . SVG Version: 6.00 Build 0)  -->
<!DOCTYPE svg PUBLIC "-//W3C//DTD SVG 1.1//EN" "http://www.w3.org/Graphics/SVG/1.1/DTD/svg11.dtd">
<svg version="1.1" id="Capa_1" xmlns="http://www.w3.org/2000/svg" xmlns:xlink="http://www.w3.org/1999/xlink" x="0px" y="0px"
	 viewBox="0 0 58 58" style="enable-background:new 0 0 58 58;" xml:space="preserve">
<g>
	<path style="fill:#4DC95B;" d="M1.653,12.5C0.74,12.5,0,13.24,0,14.153V47.5v8l8-8h35.347C44.26,47.5,45,46.76,45,45.847V14.153
		c0-0.913-0.74-1.653-1.653-1.653H1.653z"/>
	<path style="fill:#FFFFFF;" d="M22,23.5H10c-0.553,0-1-0.448-1-1s0.447-1,1-1h12c0.553,0,1,0.448,1,1S22.553,23.5,22,23.5z"/>
	<path style="fill:#FFFFFF;" d="M35,30.5H10c-0.553,0-1-0.448-1-1s0.447-1,1-1h25c0.553,0,1,0.448,1,1S35.553,30.5,35,30.5z"/>
	<path style="fill:#FFFFFF;" d="M35,37.5H10c-0.553,0-1-0.448-1-1s0.447-1,1-1h25c0.553,0,1,0.448,1,1S35.553,37.5,35,37.5z"/>
	<path style="fill:#298430;" d="M56.347,2.5H14.653C13.74,2.5,13,3.24,13,4.153V12.5h30.347C44.26,12.5,45,13.24,45,14.153V37.5
		h11.347C57.26,37.5,58,36.76,58,35.847V4.153C58,3.24,57.26,2.5,56.347,2.5z"/>
</g>
<g>
</g>
<g>
</g>
<g>
</g>
<g>
</g>
<g>
</g>
<g>
</g>
<g>
</g>
<g>
</g>
<g>
</g>
<g>
</g>
<g>
</g>
<g>
</g>
<g>
</g>
<g>
</g>
<g>
</g>
</svg>
