<svg id="Icon" xmlns="http://www.w3.org/2000/svg" width="70" height="70" viewBox="0 0 70 70">
  <rect id="Rectangle" width="70" height="70" rx="10" fill="#fff"/>
  <path id="Icon-2" data-name="Icon" d="M11.6,36.507A19.061,19.061,0,1,1,19,38,18.947,18.947,0,0,1,11.6,36.507ZM8.551,8.551a14.777,14.777,0,1,0,20.9,20.9,14.777,14.777,0,1,0-20.9-20.9ZM25.038,24.363l-.227-.1-6.755-3.378a2.111,2.111,0,0,1-1.15-1.624L16.889,19V8.867A2.111,2.111,0,0,1,21.1,8.62l.014.247v8.828L26.7,20.489a2.112,2.112,0,0,1,1.042,2.605l-.1.227a2.109,2.109,0,0,1-2.606,1.041Z" transform="translate(16 16)" fill="#eeba2b"/>
</svg>
