<svg id="coin-svgrepo-com" xmlns="http://www.w3.org/2000/svg" width="20.296" height="20.296" viewBox="0 0 20.296 20.296">
  <g id="Group_193" data-name="Group 193" transform="translate(0 0)">
    <path id="Path_182" data-name="Path 182" d="M170.979,114.784h-1.507a1.136,1.136,0,1,1,0-2.271h2.66a.518.518,0,1,0,0-1.036h-1.386v-1.058a.518.518,0,1,0-1.036,0v1.058h-.237a2.172,2.172,0,1,0,0,4.344h1.507a1.136,1.136,0,0,1,0,2.271h-2.708a.518.518,0,1,0,0,1.036h1.434v1.08a.518.518,0,0,0,1.036,0v-1.08h.263a2.172,2.172,0,0,0-.026-4.344Z" transform="translate(-160.076 -105.154)"/>
    <path id="Path_183" data-name="Path 183" d="M17.325,2.971A10.15,10.15,0,0,0,2.971,17.325,10.15,10.15,0,0,0,17.325,2.971ZM10.148,19.259a9.111,9.111,0,1,1,9.111-9.111A9.124,9.124,0,0,1,10.148,19.259Z" transform="translate(0 0)"/>
  </g>
</svg>
