<?xml version="1.0" encoding="iso-8859-1"?>
<!-- Generator: Adobe Illustrator 19.0.0, SVG Export Plug-In . SVG Version: 6.00 Build 0)  -->
<svg version="1.1" id="Layer_1" xmlns="http://www.w3.org/2000/svg" xmlns:xlink="http://www.w3.org/1999/xlink" x="0px" y="0px"
	 viewBox="0 0 490 490" style="enable-background:new 0 0 490 490;" xml:space="preserve">
<g>
	<g>
		<g>
			<path d="M467.031,229.688h-30.625v-15.312c0-4.228-3.428-7.656-7.656-7.656h-15.313v-38.282C413.437,75.561,337.877,0,245,0
				S76.563,75.561,76.563,168.437v38.282H61.25c-4.228,0-7.656,3.428-7.656,7.656v15.312H22.969c-4.228,0-7.656,3.428-7.656,7.656
				v99.531c0,4.228,3.428,7.656,7.656,7.656h30.625v15.312c0,4.228,3.428,7.656,7.656,7.656h45.938c4.229,0,7.656-3.428,7.656-7.656
				V214.375c0-4.228-3.428-7.656-7.656-7.656H91.875v-38.282c0-84.433,68.691-153.125,153.125-153.125
				s153.125,68.692,153.125,153.125v38.282h-15.312c-4.228,0-7.656,3.428-7.656,7.656v145.469c0,4.228,3.428,7.656,7.656,7.656
				h15.312v30.625c0,21.108-17.173,38.282-38.281,38.282h-77.213c-3.657-21.698-22.566-38.282-45.287-38.282
				c-25.33,0-45.938,20.607-45.938,45.938c0,25.33,20.607,45.937,45.938,45.937c22.721,0,41.63-16.584,45.287-38.281h77.213
				c29.552,0,53.593-24.042,53.593-53.594V367.5h15.313c4.228,0,7.656-3.428,7.656-7.656v-15.312h30.625
				c4.228,0,7.656-3.428,7.656-7.656v-99.531C474.687,233.115,471.259,229.688,467.031,229.688z M53.593,329.219H30.625V245h22.968
				V329.219z M99.531,222.031v130.157H68.906V222.031H99.531z M237.344,474.688c-16.887,0-30.625-13.738-30.625-30.625
				c0-16.887,13.738-30.626,30.625-30.626c16.886,0,30.625,13.739,30.625,30.626S254.23,474.688,237.344,474.688z M421.094,352.188
				h-30.625V222.031h30.625V352.188z M459.375,329.219h-22.969V245h22.969V329.219z"/>
			<path d="M245,365.924v-53.593c0-4.228-3.428-7.656-7.656-7.656c-4.228,0-7.656,3.428-7.656,7.656v53.593
				c0,4.229,3.428,7.656,7.656,7.656C241.572,373.581,245,370.153,245,365.924z"/>
			<path d="M271.79,382.813c2.646,0,5.219-1.373,6.637-3.829l26.797-46.413c2.114-3.662,0.859-8.344-2.802-10.458
				s-8.344-0.858-10.458,2.802l-26.797,46.413c-2.114,3.662-0.859,8.344,2.802,10.458
				C269.174,382.483,270.491,382.813,271.79,382.813z"/>
			<path d="M202.898,382.813c1.299,0,2.616-0.331,3.821-1.027c3.662-2.114,4.917-6.797,2.802-10.458l-26.797-46.413
				c-2.114-3.664-6.799-4.917-10.459-2.802c-3.662,2.114-4.917,6.797-2.802,10.458l26.797,46.413
				C197.678,381.441,200.251,382.813,202.898,382.813z"/>
		</g>
	</g>
</g>
<g>
</g>
<g>
</g>
<g>
</g>
<g>
</g>
<g>
</g>
<g>
</g>
<g>
</g>
<g>
</g>
<g>
</g>
<g>
</g>
<g>
</g>
<g>
</g>
<g>
</g>
<g>
</g>
<g>
</g>
</svg>
