<svg xmlns="http://www.w3.org/2000/svg" width="20" height="17.273" viewBox="0 0 20 17.273">
  <path id="heart" d="M10,17.272a.665.665,0,0,1-.491-.2L2.545,10.3a3.646,3.646,0,0,1-.307-.292q-.195-.2-.62-.737a9.938,9.938,0,0,1-.759-1.1,6.82,6.82,0,0,1-.6-1.361A4.966,4.966,0,0,1,0,5.263,5.179,5.179,0,0,1,1.418,1.395,5.345,5.345,0,0,1,5.335,0,4.418,4.418,0,0,1,6.747.242,5.688,5.688,0,0,1,8.086.894q.619.411,1.066.77A10.133,10.133,0,0,1,10,2.429a10.333,10.333,0,0,1,.848-.765q.447-.36,1.066-.77A5.732,5.732,0,0,1,13.253.242,4.387,4.387,0,0,1,14.665,0a5.345,5.345,0,0,1,3.917,1.395A5.179,5.179,0,0,1,20,5.263q0,2.485-2.556,5.06L10.491,17.07a.665.665,0,0,1-.491.2Z" fill="#fff" opacity="0.55"/>
</svg>
