<svg xmlns="http://www.w3.org/2000/svg" width="20" height="19.537" viewBox="0 0 20 19.537">
  <g id="home-solid" transform="translate(-1.375 -1.339)">
    <path id="Path_32" data-name="Path 32" d="M20.752,12.667a.608.608,0,0,1-.444-.193L11.357,2.94l-8.95,9.533a.6.6,0,0,1-.848-.038.7.7,0,0,1-.035-.9l9.395-10a.6.6,0,0,1,.883,0l9.395,10a.7.7,0,0,1,.131.724A.628.628,0,0,1,20.752,12.667Z" transform="translate(0)" fill="#ffe97b"/>
    <path id="Path_33" data-name="Path 33" d="M11.356,5.193,4,12.659V20.2a1.233,1.233,0,0,0,1.226,1.24H9.517v-6.2h3.678v6.2h4.291a1.233,1.233,0,0,0,1.226-1.24V12.615Z" transform="translate(0 -0.569)" fill="#ffe97b"/>
  </g>
</svg>
