<svg xmlns="http://www.w3.org/2000/svg" width="22.125" height="21.828" viewBox="0 0 22.125 21.828">
  <g id="incentive-svgrepo-com" transform="translate(0 -3.336)">
    <g id="Group_192" data-name="Group 192" transform="translate(0 3.336)">
      <g id="Group_191" data-name="Group 191">
        <path id="Path_178" data-name="Path 178" d="M21.411,26.29V21.5l.18.1.354-.62L19.27,19.456,16.6,20.984l.354.62.18-.1v3.362h.714V21.093l1.427-.816,1.427.816v5.2H1.427V21.807l1.427-.816,1.427.816v2.342H5V22.215l.18.1.354-.62L2.855,20.17.18,21.7l.354.62.18-.1V26.29H0V37.71H22.125V26.29ZM.714,27H2.105A1.79,1.79,0,0,1,.714,28.4ZM.714,37V35.6A1.79,1.79,0,0,1,2.105,37Zm20.7,0H20.02A1.79,1.79,0,0,1,21.411,35.6Zm0-2.113A2.5,2.5,0,0,0,19.3,37H2.826A2.5,2.5,0,0,0,.714,34.883V29.116A2.5,2.5,0,0,0,2.826,27H19.3a2.5,2.5,0,0,0,2.113,2.113Zm0-6.488A1.79,1.79,0,0,1,20.02,27h1.391Z" transform="translate(0 -18.737)"/>
        <path id="Path_179" data-name="Path 179" d="M156.282,204.664a4.282,4.282,0,1,0,4.282,4.282A4.287,4.287,0,0,0,156.282,204.664Zm0,7.851a3.569,3.569,0,1,1,3.569-3.569A3.573,3.573,0,0,1,156.282,212.515Z" transform="translate(-145.22 -195.683)"/>
        <rect id="Rectangle_983" data-name="Rectangle 983" width="22.125" height="0.714" transform="translate(0 19.686)"/>
        <rect id="Rectangle_984" data-name="Rectangle 984" width="22.125" height="0.714" transform="translate(0 21.114)"/>
        <rect id="Rectangle_985" data-name="Rectangle 985" width="0.714" height="0.714" transform="translate(18.913 6.126)"/>
        <rect id="Rectangle_986" data-name="Rectangle 986" width="0.714" height="2.855" transform="translate(18.913 2.557)"/>
        <rect id="Rectangle_987" data-name="Rectangle 987" width="0.714" height="3.569" transform="translate(2.498 3.271)"/>
        <path id="Path_180" data-name="Path 180" d="M165.491,5.453V9.462h.714V5.025l1.427-.856,1.427.856V9.462h.714V5.453l1.244.746.368-.612-3.752-2.251L163.88,5.587l.368.612Z" transform="translate(-156.57 -3.336)"/>
        <rect id="Rectangle_988" data-name="Rectangle 988" width="0.714" height="4.996" transform="translate(10.706 1.844)"/>
        <rect id="Rectangle_989" data-name="Rectangle 989" width="0.714" height="0.714" transform="translate(4.282 6.126)"/>
        <path id="Path_181" data-name="Path 181" d="M210.32,237.378h-.178v-.714h-.714v.714h-.178a1.249,1.249,0,1,0,0,2.5h1.071a.535.535,0,1,1,0,1.071h-1.071a.536.536,0,0,1-.535-.535v-.178H208v.178a1.25,1.25,0,0,0,1.249,1.249h.178v.714h.714v-.714h.178a1.249,1.249,0,1,0,0-2.5h-1.071a.535.535,0,0,1,0-1.071h1.071a.536.536,0,0,1,.535.535v.178h.714v-.178A1.25,1.25,0,0,0,210.32,237.378Z" transform="translate(-198.722 -226.256)"/>
      </g>
    </g>
  </g>
</svg>
