<svg id="logout-svgrepo-com" xmlns="http://www.w3.org/2000/svg" width="14.831" height="16" viewBox="0 0 14.831 16">
  <g id="Group_195" data-name="Group 195" transform="translate(0)">
    <path id="Path_197" data-name="Path 197" d="M17.745,15.083h4.173a2.057,2.057,0,0,0,2.054-2.054V2.971A2.057,2.057,0,0,0,21.918.917H17.677a.458.458,0,1,1,0-.917h4.241A2.974,2.974,0,0,1,24.89,2.971V13.029A2.974,2.974,0,0,1,21.918,16H17.745a.458.458,0,0,1,0-.917Z" transform="translate(-10.059)" fill="#fff"/>
    <path id="Path_198" data-name="Path 198" d="M120.654,139.373l2.913-2.913a.459.459,0,0,1,.649.649l-2.132,2.132h9.3a.458.458,0,1,1,0,.917h-9.3l2.132,2.132a.46.46,0,0,1-.323.784.447.447,0,0,1-.323-.136l-2.913-2.913A.458.458,0,0,1,120.654,139.373Z" transform="translate(-120.519 -131.696)" fill="#fff"/>
  </g>
</svg>
