<svg xmlns="http://www.w3.org/2000/svg" width="14.064" height="20" viewBox="0 0 14.064 20">
  <g id="menu" transform="translate(-5 22) rotate(-90)">
    <path id="Path_113" data-name="Path 113" d="M2,6A1,1,0,0,1,3,5H21a1,1,0,0,1,0,2H3A1,1,0,0,1,2,6Z" fill="#fff"/>
    <path id="Path_114" data-name="Path 114" d="M2,12.032a1,1,0,0,1,1-1H21a1,1,0,0,1,0,2H3A1,1,0,0,1,2,12.032Z" fill="#fff"/>
    <path id="Path_115" data-name="Path 115" d="M3,17.064a1,1,0,0,0,0,2H21a1,1,0,0,0,0-2Z" fill="#fff"/>
  </g>
</svg>
