<svg xmlns="http://www.w3.org/2000/svg" width="22.823" height="20.064" viewBox="0 0 22.823 20.064">
  <g id="Group_199" data-name="Group 199" transform="translate(-306.625 -39.064)">
    <g id="Group_198" data-name="Group 198" transform="translate(306.625 39.675)">
      <path id="Path_200" data-name="Path 200" d="M7.656,177.331H.611a.611.611,0,0,1-.572-.825l1.189-3.17a7.171,7.171,0,0,1,4.829-10.16.611.611,0,1,1,.272,1.191A5.949,5.949,0,0,0,2.431,173a.611.611,0,0,1,.036.507l-.975,2.6H7.656a5.967,5.967,0,0,0,5.155-2.981.611.611,0,1,1,1.058.61A7.193,7.193,0,0,1,7.656,177.331Z" transform="translate(0 -157.878)"/>
      <path id="Path_201" data-name="Path 201" d="M206.772,57.765l-1.284-3.424a6.557,6.557,0,1,0-5.761,3.424Z" transform="translate(-184.559 -44.652)" fill="#ffef9f"/>
    </g>
    <g id="Group_197" data-name="Group 197" transform="translate(314.625 39.064)">
      <path id="Path_202" data-name="Path 202" d="M193.68,45.286h-7.045a7.164,7.164,0,1,1,6.428-3.995l1.189,3.17a.611.611,0,0,1-.572.825Zm-7.045-13.113a5.946,5.946,0,1,0,0,11.892H192.8l-.975-2.6a.611.611,0,0,1,.036-.507,5.948,5.948,0,0,0-5.225-8.786Z" transform="translate(-179.467 -30.951)" fill="red"/>
      <path id="Path_203" data-name="Path 203" d="M324.757,114.343c0,.3.244.49.637.49.242,0,.627-.133.627-.49,0-.579.035-1.3.068-1.993s.068-1.416.068-2a.778.778,0,0,0-1.537,0c0,.582.035,1.3.068,2S324.757,113.763,324.757,114.343Z" transform="translate(-318.15 -106.185)" fill="red"/>
      <path id="Path_204" data-name="Path 204" d="M324.776,237.324a.8.8,0,0,0-.813.813.813.813,0,0,0,.813.813.829.829,0,0,0,.8-.812A.819.819,0,0,0,324.776,237.324Z" transform="translate(-317.522 -228.125)" fill="red"/>
    </g>
  </g>
</svg>
