<?xml version="1.0" encoding="iso-8859-1"?>
<!-- Generator: Adobe Illustrator 19.0.0, SVG Export Plug-In . SVG Version: 6.00 Build 0)  -->
<svg version="1.1" id="Capa_1" xmlns="http://www.w3.org/2000/svg" xmlns:xlink="http://www.w3.org/1999/xlink" x="0px" y="0px"
	 viewBox="0 0 489.7 489.7" style="enable-background:new 0 0 489.7 489.7;" xml:space="preserve">
<g>
	<g>
		<path d="M181.1,113.9h127.3c14.1,0,25.5-11.4,25.6-25.5l0,0c0.1-14.2-11.4-25.8-25.6-25.8H181.1c-14.2,0-25.6,11.5-25.6,25.6l0,0
			C155.4,102.5,166.9,113.9,181.1,113.9z"/>
		<path d="M353.6,91c0,0.8,0,1.6-0.4,2.3c-2.7,22.9-22.2,40-45.1,40h-127c-22.9,0-42.4-17.1-45.1-40c0-0.8,0-1.6,0-2.3H93.3v398.7
			h303.1V91H353.6z M130.5,453.6V167.2h228.1v286.4H130.5z"/>
		<path d="M201.7,218.5l-20.6,22.2l-3.9-4.3c-3.9-3.9-10.1-4.3-14-0.4c-3.9,3.9-4.3,10.1-0.4,14l10.2,11.6c4,4.6,11.1,4.7,15.2,0.2
			l27.8-29.7c3.9-3.9,3.5-10.1-0.4-14C211.8,214.2,205.6,214.6,201.7,218.5z"/>
		<path d="M201.7,288.8L181.1,311l-3.9-4.3c-3.9-3.9-10.1-4.3-14-0.4s-4.3,10.1-0.4,14l10.2,11.6c4,4.6,11.1,4.7,15.2,0.2l27.8-29.7
			c3.9-3.9,3.5-10.1-0.4-14C211.8,284.6,205.6,285,201.7,288.8z"/>
		<path d="M201.7,359.2l-20.6,22.2l-3.9-4.3c-3.9-3.9-10.1-4.3-14-0.4s-4.3,10.1-0.4,14l10.2,11.6c4,4.6,11.1,4.7,15.2,0.2
			l27.8-29.7c3.9-3.9,3.5-10.1-0.4-14C211.8,354.9,205.6,355.3,201.7,359.2z"/>
		<path d="M322.5,241h-90.2c-5.4,0-9.7,4.3-9.7,9.7c-0.4,5.4,4.3,9.7,9.7,9.7h90.2c5.4,0,9.7-4.3,9.7-9.7S328,241,322.5,241z"/>
		<path d="M322.5,311.4h-90.2c-5.4,0-9.7,4.3-9.7,9.7c-0.4,5.4,4.3,9.7,9.7,9.7h90.2c5.4,0,9.7-4.3,9.7-9.7S328,311.4,322.5,311.4z"
			/>
		<path d="M322.5,381.7h-90.2c-5.4,0-9.7,4.3-9.7,9.7c-0.4,5.4,4.3,9.7,9.7,9.7h90.2c5.4,0,9.7-4.3,9.7-9.7S328,381.7,322.5,381.7z"
			/>
		<path d="M273.6,42.4c1.6-3.5,2.3-7.4,2.3-11.3c0-17.1-14-31.1-31.1-31.1s-31.1,14-31.1,31.1c0,3.9,0.8,7.8,2.3,11.3H273.6z"/>
	</g>
</g>
<g>
</g>
<g>
</g>
<g>
</g>
<g>
</g>
<g>
</g>
<g>
</g>
<g>
</g>
<g>
</g>
<g>
</g>
<g>
</g>
<g>
</g>
<g>
</g>
<g>
</g>
<g>
</g>
<g>
</g>
</svg>
