<svg xmlns="http://www.w3.org/2000/svg" width="19.998" height="19.999" viewBox="0 0 19.998 19.999">
  <g id="patch-question-fll" transform="translate(-0.001 0.001)">
    <path id="Path_129" data-name="Path 129" d="M7.416,1.087a3.613,3.613,0,0,1,5.168,0l.777.8,1.113-.014a3.613,3.613,0,0,1,3.655,3.655l-.013,1.113.8.777a3.613,3.613,0,0,1,0,5.168l-.8.777.014,1.113a3.613,3.613,0,0,1-3.655,3.655l-1.113-.013-.777.8a3.613,3.613,0,0,1-5.168,0l-.777-.8-1.113.014a3.613,3.613,0,0,1-3.655-3.655l.013-1.113-.8-.777a3.613,3.613,0,0,1,0-5.168l.8-.777L1.871,5.525A3.613,3.613,0,0,1,5.526,1.87l1.113.013.777-.8ZM8.752,13.75A1.25,1.25,0,1,1,10,15a1.25,1.25,0,0,1-1.25-1.25Zm2-2.534c-.063.483-.273.784-.693.784-.471,0-.731-.4-.731-.931v-.138A2.324,2.324,0,0,1,10.487,8.88c.767-.55,1.027-.953,1.027-1.656a1.263,1.263,0,0,0-1.288-1.355A1.341,1.341,0,0,0,8.883,7.012c-.136.455-.365.637-.7.637-.424,0-.678-.308-.678-.8a2.119,2.119,0,0,1,.174-.862A2.642,2.642,0,0,1,10.3,4.375a2.669,2.669,0,0,1,2.828,2.784,2.835,2.835,0,0,1-1.313,2.482c-.81.556-1.008.907-1.057,1.575Z" fill-rule="evenodd"/>
  </g>
</svg>
