<?xml version="1.0" encoding="iso-8859-1"?>
<!-- Generator: Adobe Illustrator 19.0.0, SVG Export Plug-In . SVG Version: 6.00 Build 0)  -->
<svg version="1.1" id="Layer_1" xmlns="http://www.w3.org/2000/svg" xmlns:xlink="http://www.w3.org/1999/xlink" x="0px" y="0px"
	 viewBox="0 0 496 496" style="enable-background:new 0 0 496 496;" xml:space="preserve">
<g>
	<g>
		<g>
			<path d="M480,172.664V65.304l4.032,2.304l7.936-13.888L432,19.456L372.032,53.72l7.936,13.888L384,65.304v75.36h16V56.16
				l32-18.288l32,18.288v116.504H32V72.16l32-18.288L96,72.16v52.504h16v-43.36l4.032,2.304l7.936-13.888L64,35.456L4.032,69.72
				l7.936,13.888L16,81.304v91.36H0v256h496v-256H480z M16,188.664h31.192C44,204.312,31.648,216.664,16,219.856V188.664z
				 M16,412.664v-31.192c15.648,3.192,28,15.544,31.192,31.192H16z M480,412.664h-31.192c3.192-15.648,15.544-28,31.192-31.192
				V412.664z M480,365.304c-24.472,3.528-43.832,22.888-47.36,47.36H63.36c-3.528-24.472-22.888-43.832-47.36-47.36v-129.28
				c24.472-3.528,43.832-22.888,47.36-47.36h369.28c3.528,24.472,22.888,43.832,47.36,47.36V365.304z M480,219.856
				c-15.648-3.192-28-15.544-31.192-31.192H480V219.856z"/>
			<path d="M248,204.664c-52.936,0-96,43.064-96,96c0,52.936,43.064,96,96,96c52.936,0,96-43.064,96-96
				C344,247.728,300.936,204.664,248,204.664z M248,380.664c-44.112,0-80-35.888-80-80s35.888-80,80-80s80,35.888,80,80
				S292.112,380.664,248,380.664z"/>
			<rect y="444.664" width="496" height="16"/>
			<rect y="476.664" width="496" height="16"/>
			<rect x="424" y="140.664" width="16" height="16"/>
			<rect x="424" y="60.664" width="16" height="64"/>
			<rect x="56" y="76.664" width="16" height="80"/>
			<polygon points="200,50.792 200,140.664 216,140.664 216,41.192 248,21.992 280,41.192 280,140.664 296,140.664 296,50.792 
				323.88,67.52 332.12,53.808 248,3.336 163.88,53.808 172.12,67.52 			"/>
			<rect x="240" y="44.664" width="16" height="112"/>
			<rect x="96" y="140.664" width="16" height="16"/>
			<path d="M260,252.664h-4v-16h-16v16h-4c-15.44,0-28,12.56-28,28s12.56,28,28,28h24c6.616,0,12,5.384,12,12
				c0,6.616-5.384,12-12,12h-24c-6.616,0-12-5.384-12-12v-4h-16v4c0,15.44,12.56,28,28,28h4v16h16v-16h4c15.44,0,28-12.56,28-28
				s-12.56-28-28-28h-24c-6.616,0-12-5.384-12-12c0-6.616,5.384-12,12-12h24c6.616,0,12,5.384,12,12v4h16v-4
				C288,265.224,275.44,252.664,260,252.664z"/>
		</g>
	</g>
</g>
<g>
</g>
<g>
</g>
<g>
</g>
<g>
</g>
<g>
</g>
<g>
</g>
<g>
</g>
<g>
</g>
<g>
</g>
<g>
</g>
<g>
</g>
<g>
</g>
<g>
</g>
<g>
</g>
<g>
</g>
</svg>
