<svg xmlns="http://www.w3.org/2000/svg" width="20.001" height="18.749" viewBox="0 0 20.001 18.749">
  <g id="shop" transform="translate(0 -1.5)" opacity="0.55">
    <path id="Path_130" data-name="Path 130" d="M0,19.624A.625.625,0,0,1,.625,19H19.374a.625.625,0,0,1,0,1.25H.625A.625.625,0,0,1,0,19.624Zm3.9-17.9A.625.625,0,0,1,4.375,1.5H15.624a.625.625,0,0,1,.475.218l3.448,4.024A1.875,1.875,0,0,1,20,6.962v.162h-1.25V6.962a.625.625,0,0,0-.15-.407L15.337,2.75H4.662L1.4,6.556a.625.625,0,0,0-.15.407v.162H0V6.962a1.875,1.875,0,0,1,.451-1.22L3.9,1.717Z" transform="translate(0.002)" fill="#fff" fill-rule="evenodd"/>
    <path id="Path_131" data-name="Path 131" d="M2.969,9.969A1.719,1.719,0,0,0,4.688,8.25h1.25a1.719,1.719,0,1,0,3.438,0h1.25a1.719,1.719,0,1,0,3.438,0h1.25a1.719,1.719,0,1,0,3.438,0H20a2.969,2.969,0,0,1-5.312,1.822,2.969,2.969,0,0,1-4.688,0,2.969,2.969,0,0,1-4.688,0A2.969,2.969,0,0,1,0,8.25H1.25A1.719,1.719,0,0,0,2.969,9.969Z" transform="translate(0 -1.072)" fill="#fff"/>
    <path id="Path_132" data-name="Path 132" d="M6.889,8.132A.632.632,0,1,1,6.257,7.5.632.632,0,0,1,6.889,8.132Zm4.741,0A.632.632,0,1,1,11,7.5.632.632,0,0,1,11.63,8.132Zm4.741,0a.632.632,0,1,1-.632-.632A.632.632,0,0,1,16.371,8.132Z" transform="translate(-0.996 -0.954)" fill="#fff"/>
    <path id="Path_133" data-name="Path 133" d="M2.736,11.546V10.5H1.5v.54a2.931,2.931,0,0,0,1.236.505ZM1.5,12.457a4.122,4.122,0,0,0,1.236.335v7.6H1.5V12.457Zm16.071.335a4.146,4.146,0,0,0,1.236-.334V20.39H17.571Zm1.236-1.752a2.931,2.931,0,0,1-1.236.505V10.5h1.236v.54ZM3.973,13.591a.618.618,0,0,1,.618-.618H9.536a.618.618,0,0,1,.618.618v6.8H8.918V14.209H5.209V20.39H3.973Zm7.418,0a.618.618,0,0,1,.618-.618h3.709a.618.618,0,0,1,.618.618v4.945a.618.618,0,0,1-.618.618H12.008a.618.618,0,0,1-.618-.618Zm1.236.618v3.709H15.1V14.209Z" transform="translate(0.2 -1.239)" fill="#fff" fill-rule="evenodd"/>
  </g>
</svg>
