<svg fill="none" height="1037" viewBox="0 0 4317 1037" width="4317" xmlns="http://www.w3.org/2000/svg" xmlns:xlink="http://www.w3.org/1999/xlink"><clipPath id="a"><path d="m0 .240234h4317v1036.76h-4317z"/></clipPath><g clip-path="url(#a)" fill="#5a31f4"><path d="m1105.96 326.186c-34.62-72.633-100.26-119.551-199.174-119.551-30.36.529-60.193 8.026-87.198 21.908-27.004 13.884-50.46 33.785-68.556 58.168l-3.61 4.398v-284.66563c0-1.64517-.652-3.22286-1.816-4.38615-1.163-1.16332-2.742-1.816986-4.387-1.816986h-139.852c-1.625.029561-3.173.696091-4.312 1.856206-1.141 1.16012-1.778 2.72112-1.778 4.34693v816.55563c0 1.615.643 3.163 1.785 4.305 1.142 1.143 2.69 1.785 4.305 1.785h149.778c1.626 0 3.186-.637 4.347-1.778 1.159-1.139 1.826-2.687 1.856-4.312v-348.164c0-67.67 45.113-115.604 117.295-115.604 78.948 0 98.912 64.964 98.912 131.167v332.601c0 1.615.641 3.163 1.783 4.305 1.142 1.143 2.692 1.785 4.307 1.785h149.435c1.63 0 3.19-.637 4.35-1.778 1.16-1.139 1.83-2.687 1.86-4.312v-352.45c0-12.068 0-23.911-1.58-35.414-2.57-37.698-11.97-74.616-27.75-108.949z"/><path d="m358.093 447.206s-76.242-17.933-104.325-25.151c-28.084-7.218-77.145-22.557-77.145-59.663s39.587-48.949 79.739-48.949c40.151 0 84.814 9.7 88.31 54.25.141 1.606.88 3.098 2.07 4.186 1.191 1.086 2.746 1.684 4.358 1.679l147.634-.564c.869.002 1.729-.175 2.526-.52s1.514-.851 2.107-1.487c.593-.634 1.049-1.385 1.338-2.204.289-.82.408-1.69.345-2.557-9.135-142.558-134.213-193.536-249.591-193.536-136.807 0-236.8458 90.227-236.8458 189.702 0 72.633 20.5267 140.755 181.9198 188.124 28.309 8.233 66.769 18.947 100.379 28.309 40.376 11.279 62.143 28.309 62.143 55.151 0 31.128-45.113 52.782-89.437 52.782-64.174 0-109.739-23.797-113.461-66.543-.194-1.563-.955-3.003-2.141-4.043-1.185-1.04-2.711-1.608-4.288-1.596l-147.29545.677c-.86355 0-1.71823.173-2.51327.511-.79503.337-1.514.83-2.11401 1.452-.6.62-1.068824 1.356-1.378302 2.162-.309478.807-.4533081 1.667-.42300806 2.53 6.76703006 134.551 136.69404006 207.07 257.82504006 207.07 180.454 0 261.996-101.504 261.996-196.581.226-44.663-10.038-146.394-161.732-185.191z"/><path d="m2257.37 206.409c-74.99 0-137.82 41.504-178.31 91.582v-85.717c0-1.596-.63-3.129-1.75-4.267-1.1-1.139-2.63-1.794-4.23-1.822h-140.07c-1.61 0-3.17.64-4.31 1.782-1.14 1.143-1.79 2.693-1.79 4.307v800.766c.04 1.59.7 3.12 1.84 4.23 1.14 1.12 2.67 1.75 4.26 1.75h149.89c1.58 0 3.1-.63 4.22-1.75s1.75-2.65 1.75-4.23v-263.238h2.26c23.79 36.315 88.87 79.851 173.92 79.851 159.91 0 293.23-132.634 293.23-311.847.12-171.995-132.52-311.397-300.91-311.397zm-13.87 470.648c-31.56.784-62.67-7.857-89.3-24.819-26.63-16.964-47.62-41.479-60.27-70.418-12.64-28.94-16.38-60.991-10.72-92.063 5.64-31.072 20.43-59.755 42.45-82.388 22.03-22.636 50.3-38.194 81.21-44.69 30.9-6.496 63.04-3.637 92.31 8.214 29.28 11.85 54.35 32.155 72.04 58.322 17.68 26.168 27.16 57.009 27.25 88.591.32 20.643-3.44 41.149-11.05 60.339s-18.95 36.686-33.35 51.483c-14.39 14.797-31.57 26.604-50.56 34.743-18.97 8.14-39.36 12.45-60.01 12.686z"/><path d="m1483.34 171.229c-139.74 0-209.44 47.482-265.39 85.491l-1.69 1.127c-2.88 1.974-4.91 4.966-5.68 8.374-.78 3.409-.24 6.983 1.51 10.01l55.27 95.188c1.03 1.782 2.45 3.313 4.14 4.482 1.7 1.17 3.63 1.951 5.67 2.286 1.99.359 4.03.272 5.98-.255s3.76-1.478 5.3-2.791l4.39-3.608c28.76-24.136 74.89-56.393 186.55-65.19 62.14-4.961 115.83 11.279 155.42 48.272 43.53 40.152 69.59 105.002 69.59 173.462 0 125.98-74.22 205.153-193.43 206.733-98.24-.564-164.22-51.768-164.22-127.446 0-40.152 18.16-66.317 53.58-92.483 2.7-1.934 4.61-4.781 5.38-8.015s.34-6.637-1.21-9.579l-49.62-93.837c-.92-1.679-2.16-3.161-3.65-4.361s-3.2-2.094-5.04-2.631c-1.88-.559-3.85-.717-5.79-.466-1.95.253-3.82.911-5.49 1.933-55.71 33.045-124.06 93.497-120.34 209.665 4.51 147.859 127.45 260.755 287.26 265.38h8.01 10.94c189.92-6.204 327.07-147.183 327.07-338.351 0-175.493-127.9-363.39-364.51-363.39z"/><path d="m3148.93 261.455h-95.2c-2.22.029-4.36.93-5.94 2.509-1.59 1.58-2.49 3.715-2.5 5.95v199.739c.01 2.225.92 4.346 2.51 5.908 1.58 1.562 3.71 2.439 5.93 2.439h95.2c57.97 0 100.72-45.678 100.72-108.273s-42.75-108.272-100.72-108.272z"/><path d="m3441.38 614.802c0 28.985 24.47 45.113 67.1 45.113 57.97 0 92.25-31.354 92.25-86.957v-16.014l-86.83 4.511c-45.8 2.255-72.52 21.317-72.52 53.347z"/><path d="m4146.27 2.04983h-1278.97c-20.97-.00002-41.76 4.13459-61.13 12.16737-19.39 8.0328-37 19.8065-51.82 34.6481-14.84 14.8417-26.6 32.4605-34.62 51.8497-8.03 19.389-12.14 40.168-12.12 61.15v700.161c0 42.366 16.82 82.999 46.77 112.966 29.95 29.968 70.57 46.818 112.92 46.848h1278.97c21.01.06 41.83-4.02 61.26-12.01 19.42-7.99 37.08-19.737 51.97-34.557 14.87-14.823 26.7-32.434 34.78-51.828 8.07-19.393 12.23-40.187 12.27-61.193v-700.162c.03-21.048-4.08-41.898-12.12-61.35-8.04-19.4516-19.85-37.1221-34.74-51.9952-14.89-14.8729-32.58-26.6549-52.04-34.6685-19.46-8.01365-40.32-12.10085-61.38-12.02647zm-992.5 554.55917h-100.6c-2.24 0-4.38.89-5.98 2.476-1.58 1.587-2.48 3.739-2.48 5.983v143.234c0 2.243-.89 4.395-2.47 5.981-1.59 1.587-3.73 2.478-5.98 2.478h-70.84c-2.22-.029-4.37-.93-5.95-2.511-1.58-1.578-2.46-3.713-2.5-5.948v-516.663c0-2.242.89-4.394 2.49-5.981 1.58-1.586 3.72-2.477 5.96-2.477h188.35c106.7 0 183.05 77.708 183.05 186.77s-75.79 186.882-182.47 186.882zm530.09 151.581c.02 1.12-.18 2.231-.61 3.271-.42 1.039-1.04 1.986-1.82 2.783-.8.797-1.73 1.431-2.77 1.863-1.02.431-2.14.654-3.26.654h-66.88c-1.12 0-2.23-.223-3.26-.654-1.04-.432-1.98-1.066-2.76-1.863s-1.41-1.744-1.82-2.783c-.42-1.04-.63-2.151-.61-3.271v-15.451c.1-1.357-.22-2.713-.95-3.865-.71-1.154-1.78-2.045-3.06-2.54-1.26-.494-2.65-.565-3.96-.203-1.32.36-2.48 1.135-3.31 2.209-19.97 21.767-52.45 37.556-104.22 37.556-76.23 0-126.66-39.699-126.66-108.272-.73-16.72 2.72-33.359 10.05-48.408 7.32-15.046 18.3-28.026 31.92-37.758 27.51-20.64 70.14-31.354 133.41-33.836l67.11-2.255v-19.626c0-39.587-26.62-56.391-69.37-56.391-42.74 0-69.7 15.113-76 39.813-.51 1.744-1.58 3.27-3.06 4.333-1.46 1.064-3.25 1.602-5.07 1.531h-66.2c-1.22.031-2.43-.207-3.55-.693-1.1-.488-2.11-1.214-2.92-2.128-.8-.915-1.4-1.992-1.74-3.162-.35-1.169-.44-2.398-.25-3.603 9.93-58.648 58.42-103.198 161.85-103.198 109.85 0 149.43 51.092 149.43 148.649zm416.63-335.195-148.87 397.113c-33.84 92.256-93.05 115.942-157.91 115.942-12.21.298-24.41-1.184-36.2-4.398-1.84-.495-3.45-1.579-4.63-3.089-1.15-1.507-1.78-3.355-1.8-5.258v-60.34c0-1.262.27-2.51.8-3.654.54-1.144 1.31-2.157 2.28-2.964.98-.809 2.11-1.392 3.33-1.71s2.5-.363 3.74-.131c10.23 1.94 20.61 2.922 31.02 2.934 17.93.899 35.65-4.247 50.32-14.615 14.65-10.368 25.41-25.358 30.54-42.567l4.41-13.873c.68-1.856.68-3.894 0-5.752l-139.18-357.524c-.43-1.278-.55-2.64-.34-3.972.2-1.333.71-2.6 1.47-3.698.79-1.098 1.82-1.997 3.01-2.625 1.19-.627 2.52-.965 3.86-.984h67.68c1.73.017 3.41.551 4.84 1.537 1.43.984 2.53 2.374 3.16 3.99l94.52 252.185c.63 1.647 1.73 3.066 3.18 4.067 1.46 1.003 3.18 1.538 4.94 1.538 1.75 0 3.49-.535 4.93-1.538 1.45-1.001 2.57-2.42 3.18-4.067l82.01-251.508c.54-1.715 1.63-3.209 3.09-4.264 1.46-1.056 3.21-1.617 5.01-1.601h69.38c1.33-.006 2.65.306 3.86.904 1.19.6 2.24 1.472 3.04 2.547s1.33 2.322 1.56 3.643c.24 1.319.16 2.675-.23 3.958z"/></g></svg>