<svg xmlns="http://www.w3.org/2000/svg" width="12" height="11.443" viewBox="0 0 12 11.443">
  <path id="star" d="M12,4.434a.52.52,0,0,1-.187.346L9.194,7.333l.62,3.6a1.132,1.132,0,0,1,.007.144.425.425,0,0,1-.075.255.259.259,0,0,1-.221.106.585.585,0,0,1-.288-.086L6,9.655l-3.238,1.7a.62.62,0,0,1-.288.086.265.265,0,0,1-.228-.1.41.41,0,0,1-.075-.255,1.234,1.234,0,0,1,.014-.144l.62-3.6L.18,4.78A.552.552,0,0,1,0,4.434Q0,4.167.4,4.1l3.62-.526L5.646.295Q5.783,0,6,0t.353.295L7.975,3.575,11.6,4.1q.4.065.4.333Z" fill="#ffd138"/>
</svg>
